<?xml version="1.0" encoding="utf-8"?>
<!-- Generator: Adobe Illustrator 19.1.0, SVG Export Plug-In . SVG Version: 6.00 Build 0)  -->
<svg version="1.1" id="Ebene_1" xmlns="http://www.w3.org/2000/svg" xmlns:xlink="http://www.w3.org/1999/xlink" x="0px" y="0px"
	 viewBox="0 0 512 512" style="enable-background:new 0 0 512 512;" xml:space="preserve">
<style type="text/css">
	.st0{fill-rule:evenodd;clip-rule:evenodd;fill:#EB575B;}
	.st1{fill-rule:evenodd;clip-rule:evenodd;fill:#C7202C;}
	.st2{fill-rule:evenodd;clip-rule:evenodd;fill:#A7191C;}
	.st3{fill-rule:evenodd;clip-rule:evenodd;fill:ivory;}
	.st4{fill-rule:evenodd;clip-rule:evenodd;fill:ivory;}
</style>
<path class="st0" d="M129.4,209.8c21.2-74,97.3-162,171.9-160.2c7.2,0.2,14.1,1.6,20.8,4c0.1,0,0.2,0,0.2,0.1
	C372.9,68.4,414.5,145,427.5,230c5.7,1.2,9.9,3.6,11.8,7.2c2.1,4,1.4,8.9-1.6,14.3c11.4,3.8,18.6,9.3,19.1,15.9
	c0.3,4.2-2.2,8.4-6.8,12.2c3.5,1.2,6.2,3.1,7.7,5.7c5.5,9.1-4.6,24.3-23.5,38c5.5,3.6,8.7,7.9,8.7,12.4c0,6.8-7.2,13-19,17.5
	c-2.2,9.3-5,18.3-8.3,27c4.1,1.2,7.2,4.8,9.3,10.2c11.9-6.2,22.2-7.5,27.6-2.5c7.1,6.6,4,22.3-6.6,39.4c9.4,6.3,14.7,13.4,13.4,20
	c-1.1,5.6-6.6,9.8-15,12.4c6.8,17,7.2,31.3-0.2,36.6c-6.1,4.3-16.1,1.6-27.1-6.2c-2.9,5.7-6.8,9.3-11.3,9.9
	c-4.8,0.6-9.8-2.2-14.3-7.6c-1,0.3-1.9,0.6-2.8,0.7c-5.1,4.4-10.3,6.4-14.9,5.1c-6.5-1.8-10.6-9.9-12-21.4
	c-17.3,3.2-31,0.9-34.7-7.2c-3.6-7.9,3.3-19.5,16.6-30.3c-15.9-11.9-24.6-24.4-20.9-32.4c3.4-7.2,16.2-9.1,33-6
	c0.1-5.9,1.9-10.5,5.4-13c4-2.8,9.7-2.6,16.2,0.1c0.1-2.6,0.2-5.3,0.3-8.1c-11.5,1.4-27.4-0.6-44.3-6c-1.3,10.6-5.4,18-12,20
	c-9.5,2.9-21.9-5.9-32.4-21.3c-0.8,12.1-5,20.7-12.3,22.9c-9.2,2.8-21.1-5.4-31.5-19.9c-20.2,13.8-39.7,18.9-48,11.5
	c-3.7-3.3-4.7-8.6-3.5-15.2c-1.2,0.3-2.4,0.5-3.6,0.8c-35.3,7.2-66.5,2.2-69.8-11.3c-0.8-3.5,0.3-7.2,3-10.8
	c-27.5-5.6-46.8-17.2-45.4-28.7c0.3-2.5,1.5-4.8,3.6-6.9c-7.4-3.5-11.8-8.1-12.2-13.2c-0.3-4.7,2.8-9.3,8.4-13.4
	c0-0.3-0.1-0.5-0.1-0.8c-9-3.7-14.6-8.7-15.1-14.5c-0.6-7.7,8.1-15.1,22.3-20.6c0.8-1.3,1.7-2.5,2.6-3.7c-2.5-6.1-2.5-11.5,0.5-15.3
	c4.9-6.4,17.1-7.1,32.2-3c1-0.2,2.1-0.3,3.2-0.4c-2.2-8-1.5-14.6,2.8-18.4C126.9,211,128.1,210.3,129.4,209.8z"/>
<path class="st1" d="M97.1,196.7C102.9,119.2,189.7,5,274.5,7c84.8,2,140.8,175.4,113.8,242.7C361.3,317,116.4,268,97.1,196.7z"/>
<path class="st2" d="M97.1,196.7c1-13.2,4.3-27.6,9.6-42.2c10.1-1.3,25.3,4.4,40.8,15.3c0.9-7,3.7-12.2,8.5-14.4
	c9-4.1,22.9,3.1,35.9,17.3c-0.7-7.5,1.1-13.3,5.6-16.4c7.7-5.2,21.5-1,36,9.5c17.5-11.1,33.7-14.9,41.4-8.4
	c3.5,2.9,4.7,7.6,4.1,13.5c22.7-15.4,45.2-21.2,53.8-12.7c2.7,2.7,3.8,6.6,3.4,11.3c25.7-9.5,48.5-10,54.5,0c1,1.6,1.4,3.4,1.5,5.4
	l0.6,0c4.2,29.2,3.1,56.1-4.4,74.8C361.3,317,116.4,268,97.1,196.7z"/>
<path class="st2" d="M313.1,175.4c-24.4-78.9-108.4-37-110.3-85.9c-1.9-48.8,142.2-4.3,140.3,84
	C341.3,261.8,326.3,252.4,313.1,175.4z"/>
<path class="st3" d="M64.4,201.5c-2.4-6-2.4-11.2,0.5-14.9c4.8-6.3,16.7-6.9,31.4-2.9c1-0.2,2-0.3,3.1-0.4c-2.2-7.8-1.5-14.2,2.7-18
	c8.3-7.3,27.6-2,47.3,11.8c0.9-6.9,3.6-11.9,8.3-14c8.8-4,22.3,3,35,16.9c-0.7-7.3,1.1-13,5.5-16c7.5-5.1,21-1,35.2,9.3
	c17.1-10.8,33-14.5,40.5-8.2c3.4,2.9,4.6,7.5,4,13.2c22.2-15.1,44.2-20.7,52.6-12.4c2.7,2.6,3.7,6.5,3.3,11
	c25.1-9.3,47.4-9.7,53.3,0c0.9,1.6,1.4,3.3,1.4,5.2c9.9,0.2,17.1,2.8,19.9,7.9c2.1,3.9,1.4,8.7-1.6,14c11.1,3.7,18.2,9.1,18.6,15.6
	c0.3,4.1-2.1,8.2-6.7,11.9c3.4,1.2,6,3,7.5,5.5c5.3,8.9-4.5,23.7-22.9,37.1c5.4,3.6,8.5,7.7,8.5,12.1c0,11.3-20.4,20.8-48,23.5
	c2,4.1,2.4,7.9,0.9,11.1c-5.2,11.1-30.9,12-59.8,2.8c-1.2,10.3-5.2,17.6-11.8,19.5c-9.3,2.8-21.4-5.8-31.7-20.8
	c-0.8,11.8-4.9,20.3-12,22.4c-9,2.7-20.6-5.2-30.8-19.5c-19.7,13.4-38.8,18.5-46.9,11.2c-3.6-3.2-4.6-8.4-3.4-14.8
	c-1.2,0.3-2.4,0.5-3.6,0.8c-34.5,7-65,2.1-68.2-11c-0.8-3.4,0.3-7,2.9-10.6c-26.8-5.4-45.7-16.8-44.4-28c0.3-2.4,1.5-4.7,3.5-6.7
	c-7.2-3.4-11.6-7.9-11.9-12.9c-0.3-4.6,2.7-9.1,8.2-13.1c0-0.3-0.1-0.5-0.1-0.8c-8.8-3.6-14.3-8.5-14.7-14.1
	c-0.6-7.5,8-14.8,21.8-20.1C62.7,203.8,63.5,202.6,64.4,201.5z"/>
<path class="st1" d="M295.6,11.1c88.9,25.9,150.2,243,76.6,360.6c-17.6,28.1-25.1-0.9-19.9-49.3c13.1-121.5-47-226.1-128-258
	C162.7,40.1,275,5.1,295.6,11.1z"/>
<path class="st2" d="M393.5,324c-5.2,17.1-12.2,33.2-21.3,47.7c-16.7,26.7-24.3,1.9-20.6-42.1c1,0.5,2.1,1,3.2,1.5
	c2.6-3.5,5.6-5.7,9.1-6.2c2.6-0.3,5.3,0.3,8,1.9c0.7-0.2,1.5-0.4,2.2-0.5c5.1-4.4,10.3-6.4,14.9-5.1
	C390.6,321.8,392.1,322.7,393.5,324z"/>
<path class="st4" d="M374,342.7c-0.7,0.1-1.5,0.3-2.2,0.5c-2.6-1.6-5.3-2.3-8-1.9c-3.5,0.5-6.5,2.6-9.1,6.2
	c-8.2-4.4-15.5-5.3-20.3-2c-3.6,2.5-5.3,7.1-5.4,13c-16.9-3.1-29.7-1.3-33,6c-3.7,8,5,20.4,20.9,32.4
	c-13.3,10.8-20.2,22.3-16.6,30.3c3.7,8.1,17.3,10.4,34.7,7.2c1.4,11.5,5.5,19.5,12,21.4c4.6,1.3,9.7-0.7,14.9-5.1
	c0.9-0.1,1.9-0.4,2.8-0.7c4.5,5.4,9.5,8.2,14.3,7.6c4.5-0.6,8.4-4.2,11.3-9.9c10.9,7.8,21,10.5,27.1,6.2c7.4-5.2,7-19.6,0.2-36.6
	c8.4-2.6,14-6.9,15-12.4c1.3-6.6-4-13.7-13.4-20c10.6-17.1,13.7-32.8,6.6-39.4c-5.4-5.1-15.8-3.7-27.6,2.5c-2.1-5.4-5.3-9-9.4-10.2
	C384.3,336.3,379.1,338.3,374,342.7z"/>
<path class="st3" d="M371.9,350.7c-0.6,0.1-1.2,0.2-1.8,0.4c-2.1-1.3-4.2-1.8-6.3-1.5c-2.7,0.4-5.1,2.1-7.2,4.9
	c-6.5-3.4-12.2-4.2-16-1.6c-2.8,2-4.2,5.6-4.3,10.3c-13.3-2.5-23.4-1-26.1,4.7c-2.9,6.3,3.9,16.1,16.5,25.6
	c-10.5,8.5-15.9,17.6-13.1,23.9c2.9,6.4,13.7,8.2,27.4,5.7c1.1,9.1,4.3,15.4,9.5,16.9c3.6,1,7.7-0.5,11.8-4c0.7-0.1,1.5-0.3,2.2-0.6
	c3.6,4.2,7.5,6.5,11.3,6c3.6-0.5,6.6-3.3,8.9-7.8c8.6,6.1,16.6,8.3,21.4,4.9c5.9-4.1,5.6-15.5,0.2-28.9c6.7-2.1,11.1-5.4,11.9-9.8
	c1-5.2-3.1-10.8-10.6-15.8c8.4-13.5,10.8-25.9,5.2-31.1c-4.3-4-12.4-3-21.8,1.9c-1.7-4.3-4.1-7.1-7.4-8
	C380,345.7,375.9,347.2,371.9,350.7z"/>
</svg>
