<?xml version="1.0" encoding="utf-8"?>
<!-- Generator: Adobe Illustrator 19.1.0, SVG Export Plug-In . SVG Version: 6.00 Build 0)  -->
<svg version="1.1" id="Ebene_1" xmlns="http://www.w3.org/2000/svg" xmlns:xlink="http://www.w3.org/1999/xlink" x="0px" y="0px"
	 viewBox="0 0 512 512" style="enable-background:new 0 0 512 512;" xml:space="preserve">
<style type="text/css">
	.st0{fill-rule:evenodd;clip-rule:evenodd;fill:#FFFFFF;}
	.st1{fill-rule:evenodd;clip-rule:evenodd;fill:#E9C6B2;}
	.st2{fill:#4F4F4F;}
	.st3{fill-rule:evenodd;clip-rule:evenodd;fill:#DEA8A0;}
	.st4{fill:#DEA8A0;}
	.st5{fill-rule:evenodd;clip-rule:evenodd;fill:#BE4A46;}
	.st6{fill-rule:evenodd;clip-rule:evenodd;fill:#9E3733;}
	.st7{fill-rule:evenodd;clip-rule:evenodd;fill:#EAC0B7;}
</style>
<g>

		<ellipse transform="matrix(0.2637 -0.9646 0.9646 0.2637 -115.0565 437.3002)" class="st0" cx="228.9" cy="294" rx="109.7" ry="182"/>

		<ellipse transform="matrix(0.2637 -0.9646 0.9646 0.2637 -67.449 562.4908)" class="st0" cx="334.7" cy="325.4" rx="66.2" ry="71.6"/>

		<ellipse transform="matrix(0.2637 -0.9646 0.9646 0.2637 -97.9896 430.3799)" class="st1" cx="232.9" cy="279.4" rx="111.3" ry="128.4"/>
	<g>

			<ellipse transform="matrix(0.2637 -0.9646 0.9646 0.2637 -132.6646 522.2818)" class="st0" cx="275.8" cy="348" rx="66.2" ry="75.9"/>

			<ellipse transform="matrix(0.2637 -0.9646 0.9646 0.2637 -186.8713 388.5724)" class="st0" cx="161.1" cy="316.7" rx="66.2" ry="75.9"/>
	</g>

		<ellipse transform="matrix(0.2637 -0.9646 0.9646 0.2637 -154.3305 594.4119)" class="st0" cx="312.2" cy="398.3" rx="71.9" ry="71.6"/>

		<ellipse transform="matrix(0.2637 -0.9646 0.9646 0.2637 -270.6541 370.3718)" class="st0" cx="107.3" cy="362.5" rx="71.9" ry="71.6"/>

		<ellipse transform="matrix(0.2637 -0.9646 0.9646 0.2637 -277.0856 503.0759)" class="st0" cx="191" cy="433" rx="71.9" ry="71.6"/>
	<path class="st2" d="M308.5,266.5c0.2,1.5,1.5,2.6,3,2.4c1.5-0.2,2.6-1.5,2.4-3c-0.3-2.4-1.5-4.7-3.3-6.9
		c-3.2-3.7-8.4-7.1-14.2-9.2c-5.8-2.2-12.2-3.2-17.7-2.5c-3.7,0.5-7,1.7-9.7,3.9c-1.2,1-1.3,2.7-0.3,3.8c1,1.2,2.7,1.3,3.8,0.3
		c1.8-1.5,4.1-2.3,6.8-2.7c4.7-0.6,10.1,0.4,15.2,2.2c5,1.9,9.4,4.6,11.9,7.6C307.6,263.9,308.3,265.2,308.5,266.5z"/>
	<circle class="st3" cx="233.6" cy="277" r="35"/>
	<path class="st0" d="M196.5,195.4c18.3-0.3,33.2,6.5,33.4,15.1c0.1,8.7-15.9,0.1-34.2,0.5c-18.3,0.3-31.9,9.3-32,0.7
		C163.6,202.9,178.3,195.7,196.5,195.4z"/>
	<path class="st0" d="M305,225c-15.6-9.6-31.9-11.3-36.4-4c-4.5,7.4,13.6,8.2,29.2,17.8c15.6,9.6,22.7,24.2,27.2,16.9
		C329.5,248.3,320.6,234.6,305,225z"/>
	<path class="st4" d="M254.7,325.4c1.1-1,1.2-2.7,0.2-3.9c-1-1.1-2.7-1.2-3.9-0.2c-1.8,1.7-4.4,2.9-7.4,3.8
		c-6.5,1.8-15,1.5-23.1-0.5c-8-2-15.5-5.7-20.2-10.8c-2-2.2-3.5-4.7-4.3-7.4c-0.4-1.5-1.9-2.3-3.3-1.9c-1.5,0.4-2.3,1.9-1.9,3.3
		c1,3.6,2.9,6.8,5.5,9.7c5.4,5.9,13.9,10.2,22.9,12.4c8.9,2.2,18.4,2.5,25.8,0.5C248.8,329.3,252.2,327.7,254.7,325.4z"/>
	<path class="st5" d="M167,127.2c34.1-79.8,95-136.6,179.3-61.1c84.3,75.5,112.2,111.2,15.5,92.3C266,139.6,231.6,146.7,167,127.2z"
		/>
	<path class="st6" d="M339.3,151.9c5.9-17.5-12.9-67.3-50-75.7C252.2,67.9,328,83.4,339.3,151.9z"/>
	<circle class="st0" cx="426" cy="145.6" r="52.3"/>
	<path class="st0" d="M280.5,105.4c-76.6-20.9-153.4,15.9-171.5,82.3c-4.2,15.3-4.9,30.9-2.5,46.1c32.4-39.4,91.4-57.4,150.3-41.3
		c58.9,16.1,100.5,61.7,108.3,112c9.7-11.8,17.1-25.6,21.3-40.9C404.4,197.1,357,126.3,280.5,105.4z"/>
	<circle class="st7" cx="249.3" cy="264.9" r="9.5"/>
	<path class="st2" d="M168.1,226c-0.9,1.2-0.7,2.9,0.5,3.8c1.2,0.9,2.9,0.7,3.8-0.5c0.8-1,2.1-1.8,3.8-2.4c3.7-1.3,8.9-1.4,14.2-0.5
		c5.3,0.9,10.5,2.9,14.2,5.8c2.1,1.7,3.7,3.6,4.5,5.8c0.5,1.4,2.1,2.2,3.5,1.7c1.4-0.5,2.2-2.1,1.7-3.5c-1.1-3.2-3.4-6-6.3-8.3
		c-4.4-3.4-10.5-5.8-16.6-6.8c-6.1-1.1-12.3-0.9-16.9,0.7C171.8,222.7,169.6,224.1,168.1,226z"/>
</g>
</svg>
