<?xml version="1.0" encoding="utf-8"?>
<!-- Generator: Adobe Illustrator 19.1.0, SVG Export Plug-In . SVG Version: 6.00 Build 0)  -->
<svg version="1.1" id="Ebene_1" xmlns="http://www.w3.org/2000/svg" xmlns:xlink="http://www.w3.org/1999/xlink" x="0px" y="0px"
	 viewBox="0 0 512 512" style="enable-background:new 0 0 512 512;" xml:space="preserve">
<style type="text/css">
	.st0{fill-rule:evenodd;clip-rule:evenodd;fill:#9E3733;}
	.st1{fill-rule:evenodd;clip-rule:evenodd;fill:#4F4F4F;}
	.st2{fill-rule:evenodd;clip-rule:evenodd;fill:#FFFFFF;}
	.st3{fill-rule:evenodd;clip-rule:evenodd;fill:#BE4A46;}
	.st4{fill:#E39234;}
	.st5{fill-rule:evenodd;clip-rule:evenodd;fill:#48c769;}
	.st6{fill-rule:evenodd;clip-rule:evenodd;fill:#41ab5d;}
</style>
<g>
	<path class="st0" d="M208.3,267.8l-64.8-30.5c-14.8,8.8-20.8,22.2-18.7,39.7l64.2,30.2C219.3,321,239.3,282.4,208.3,267.8z"/>
	<path class="st1" d="M120.4,225.1c-12.5-10.3-24-11.1-19.7,4c-5.9-3.7-20.7-7.4-25.1,2.4c-8.7,19.4,13,32.9,37.4,35.1
		C127.3,267.9,142.2,243.1,120.4,225.1z"/>
	<path class="st2" d="M126.7,277.6c2.2-13.3,11.4-31.4,18.5-39.2c2.2-2.4-0.1-4.7-1.9-5.6c-5.4-2.7-11.2-5.2-14.8-1.4
		c-9.5,9.8-16.6,25.1-17.8,38.1c-0.5,4.9,5.4,8,10.6,10.3C123.6,280.9,126.3,280.2,126.7,277.6z"/>
</g>
<g>
	<g>
		<path class="st1" d="M320.3,431.9c0.8,4.5,10.7,8.6,10.5,18.6c-0.2,10-4.9,20.1-33.4,16.2c-26.4-3.6-28.9-19.2-24.2-35.2
			C278,415.5,317.6,417.3,320.3,431.9z"/>
		<rect x="274" y="296.2" class="st0" width="48" height="122.3"/>
		<path class="st2" d="M274.4,410.3c14.2,4,36.4,3.3,47.4,0c3.4-1,4.6,2.3,4.7,4.5c0,1.4,0.1,2.8,0,4.1c0.2,6.6-0.3,13.2-5.6,15.1
			c-13.9,5.1-32.3,4.9-46-0.1c-5.1-1.9-5.4-9.2-5.2-15.5c0-1.2,0-2.4,0-3.6C269.7,411.9,271.6,409.5,274.4,410.3z"/>
	</g>
	<g>
		<path class="st1" d="M216.1,431.9c-0.8,4.5-10.7,8.6-10.5,18.6c0.2,10,4.9,20.1,33.4,16.2c26.4-3.6,28.9-19.2,24.2-35.2
			C258.4,415.5,218.9,417.3,216.1,431.9z"/>
		<rect x="214.4" y="296.2" class="st0" width="48" height="122.3"/>
		<path class="st2" d="M262.1,410.3c-14.2,4-36.4,3.3-47.4,0c-3.4-1-4.6,2.3-4.7,4.5c0,1.4-0.1,2.8,0,4.1
			c-0.2,6.6,0.3,13.2,5.6,15.1c13.9,5.1,32.3,4.9,46-0.1c5.1-1.9,5.4-9.2,5.2-15.5c0-1.2,0-2.4,0-3.6
			C266.7,411.9,264.8,409.5,262.1,410.3z"/>
	</g>
</g>
<path class="st3" d="M268.2,397.9c-62.2,0-112.9-43.8-112.9-97.5c0-53.7,50.7-97.5,112.9-97.5s112.9,43.8,112.9,97.5
	C381.2,354.1,330.4,397.9,268.2,397.9z"/>
<path class="st1" d="M186.7,367.9c48.5,21.3,114.2,21.2,163.6-0.5c9.3-8.5,16.8-18.4,22.1-29.3c-58.6,37.2-149.8,37.2-208.4,0
	C169.4,349.2,177.2,359.3,186.7,367.9z"/>
<path class="st4" d="M279.4,357.9c2.7,0,5.2,1.1,7,2.9l0,0c1.8,1.8,2.9,4.3,2.9,7v14c0,2.7-1.1,5.2-2.9,7l0,0
	c-1.8,1.8-4.3,2.9-7,2.9h-22.3c-2.7,0-5.2-1.1-7-2.9l0,0c-1.8-1.8-2.9-4.3-2.9-7v-14c0-2.7,1.1-5.2,2.9-7l0,0c1.8-1.8,4.3-2.9,7-2.9
	H279.4L279.4,357.9z M256.1,366.8L256.1,366.8c-0.3,0.3-0.4,0.6-0.4,1v14c0,0.4,0.2,0.7,0.4,1l0,0c0.3,0.3,0.6,0.4,1,0.4h22.3
	c0.4,0,0.7-0.2,1-0.4l0,0c0.3-0.3,0.4-0.6,0.4-1v-14c0-0.4-0.2-0.7-0.4-1l0,0c-0.3-0.3-0.6-0.4-1-0.4h-22.3
	C256.7,366.4,256.3,366.5,256.1,366.8z"/>
<g>
	<g>
		<path class="st3" d="M113.8,135.2c-1.6-3.7-13.3-13.4-16.1-13.5c-2.9-0.2-8.9,13.9-6.8,16.4c2.1,2.5,17.2,4.8,20.6,3.9
			C114.8,141.1,115.1,138.4,113.8,135.2z"/>
		<path class="st0" d="M113.8,138.6c0.9-2.8-5.6-8.7-7-6.6c-1.4,2.1,6.6,3.7,5.6,5.8c-1,2.1-5.5-0.6-5.5,2
			C106.9,142.2,112.9,141.5,113.8,138.6z"/>
		<path class="st3" d="M124.6,134.8c1.5-3.7,12.8-13.2,15.7-13.3c2.9-0.1,9.3,14,7.3,16.5c-2,2.5-17.1,4.5-20.5,3.6
			C123.8,140.7,123.4,138,124.6,134.8z"/>
		<path class="st0" d="M124.7,138.2c-1-2.9,5.3-8.6,6.8-6.5c1.4,2.1-6.5,3.6-5.5,5.7c1,2.1,5.5-0.5,5.6,2.1
			C131.7,141.9,125.7,141.1,124.7,138.2z"/>
		<path class="st0" d="M118.3,134.7c-4,0.3-5.9,0-5.7,3.9c0.2,3.9-0.8,4.7,6.2,5c7,0.3,8.1-0.8,7.2-4.2
			C125.2,135.9,124.8,134.3,118.3,134.7z"/>
		<path class="st3" d="M118.5,135.1c-3.6,0.2-5.3,0-5.1,3.2c0.2,3.2-0.7,3.9,5.6,4.2c6.3,0.3,7.2-0.6,6.4-3.5
			C124.6,136.1,124.2,134.8,118.5,135.1z"/>
	</g>
	<g>

			<rect x="72.1" y="146.2" transform="matrix(-1 2.623441e-03 -2.623441e-03 -1 239.7003 382.9196)" class="st5" width="95" height="90.8"/>

			<rect x="72" y="156.3" transform="matrix(-1 2.623460e-03 -2.623460e-03 -1 239.4439 317.6389)" class="st6" width="95" height="5.3"/>

			<rect x="64.9" y="139.7" transform="matrix(-1 2.621335e-03 -2.621335e-03 -1 239.3563 295.68)" class="st5" width="109.2" height="16.6"/>
	</g>

		<rect x="113.8" y="139.7" transform="matrix(-1 2.653397e-03 -2.653397e-03 -1 239.6801 376.3878)" class="st3" width="11.6" height="97.3"/>
</g>
</svg>
